<svg width="14" height="13" viewBox="0 0 14 13" fill="none" xmlns="http://www.w3.org/2000/svg">
<path d="M3.5 12.9999H0.875C0.39375 12.9999 0 12.6099 0 12.1332V6.06662C0 5.58995 0.39375 5.19995 0.875 5.19995H3.5C3.98125 5.19995 4.375 5.58995 4.375 6.06662V12.1332C4.375 12.6099 3.98125 12.9999 3.5 12.9999ZM0.875 6.06662V12.1332H3.5V6.06662H0.875Z" fill="#02877E"/>
<path d="M14 6.58667C14 5.67667 13.2563 5.2 12.25 5.2H9.31875C9.5375 4.42 9.625 3.68333 9.625 3.03333C9.625 0.52 8.925 0 8.3125 0C7.91875 0 7.6125 0.0433335 7.21875 0.26C7.0875 0.346667 7.04375 0.433333 7 0.563333L6.5625 2.90333C6.08125 4.11667 4.9 5.2 3.9375 5.93667V12.1333C4.2875 12.1333 4.6375 12.3067 5.075 12.5233C5.55625 12.74 6.0375 13 6.5625 13H10.7188C11.5938 13 12.25 12.3067 12.25 11.7C12.25 11.57 12.25 11.4833 12.2063 11.3967C12.7313 11.18 13.125 10.7467 13.125 10.1833C13.125 9.92333 13.0813 9.70667 12.9938 9.49C13.3438 9.27333 13.65 8.88333 13.65 8.45C13.65 8.19 13.5187 7.93 13.3875 7.71333C13.7375 7.45333 14 7.02 14 6.58667ZM13.0813 6.58667C13.0813 7.15 12.5125 7.19333 12.425 7.45333C12.3375 7.75667 12.775 7.84333 12.775 8.36333C12.775 8.88333 12.1187 8.88333 12.0312 9.18667C11.9438 9.53333 12.25 9.62 12.25 10.14V10.2267C12.1625 10.66 11.5063 10.7033 11.375 10.8767C11.2437 11.0933 11.375 11.18 11.375 11.6567C11.375 11.9167 11.0687 12.09 10.7188 12.09H6.5625C6.2125 12.09 5.8625 11.9167 5.425 11.7C5.075 11.5267 4.725 11.3533 4.375 11.2667V6.71667C5.46875 5.89333 6.86875 4.68 7.39375 3.16333V3.07667L7.7875 0.91C7.9625 0.866667 8.09375 0.866667 8.3125 0.866667C8.4 0.866667 8.75 1.38667 8.75 3.03333C8.75 3.68333 8.61875 4.37667 8.4 5.2H8.3125C8.05 5.2 7.875 5.37333 7.875 5.63333C7.875 5.89333 8.05 6.06667 8.3125 6.06667H12.25C12.6875 6.06667 13.0813 6.28333 13.0813 6.58667Z" fill="#02877E"/>
</svg>
