<svg width="14" height="13" viewBox="0 0 14 13" fill="none" xmlns="http://www.w3.org/2000/svg">
<path d="M3.5 12.9999H0.875C0.39375 12.9999 0 12.6099 0 12.1332V6.06662C0 5.58995 0.39375 5.19995 0.875 5.19995H3.5C3.98125 5.19995 4.375 5.58995 4.375 6.06662V12.1332C4.375 12.6099 3.98125 12.9999 3.5 12.9999ZM0.875 6.06662V12.1332H3.5V6.06662H0.875Z" fill="#02877E"/>
<path d="M14 6.58667C14 5.67667 13.2563 5.2 12.25 5.2H9.31875C9.5375 4.42 9.625 3.68333 9.625 3.03333C9.625 0.52 8.925 0 8.3125 0C7.91875 0 7.6125 0.0433335 7.21875 0.26C7.0875 0.346667 7.04375 0.433333 7 0.563333L6.5625 2.90333C6.08125 4.11667 4.9 5.2 3.9375 5.93667V12.1333C4.2875 12.1333 4.6375 12.3067 5.075 12.5233C5.55625 12.74 6.0375 13 6.5625 13H10.7188C11.5938 13 12.25 12.3067 12.25 11.7C12.25 11.57 12.25 11.4833 12.2063 11.3967C12.7313 11.18 13.125 10.7467 13.125 10.1833C13.125 9.92333 13.0813 9.70667 12.9938 9.49C13.3438 9.27333 13.65 8.88333 13.65 8.45C13.65 8.19 13.5187 7.93 13.3875 7.71333C13.7375 7.45333 14 7.02 14 6.58667ZM13.0813 6.58667C13.0813 7.15 12.5125 7.19333 12.425 7.45333C12.3375 7.75667 12.775 7.84333 12.775 8.36333C12.775 8.88333 12.1187 8.88333 12.0312 9.18667C11.9438 9.53333 12.25 9.62 12.25 10.14V10.2267C12.1625 10.66 11.5063 10.7033 11.375 10.8767C11.2437 11.0933 11.375 11.18 11.375 11.6567C11.375 11.9167 11.0687 12.09 10.7188 12.09H6.5625C6.2125 12.09 5.8625 11.9167 5.425 11.7C5.075 11.5267 4.725 11.3533 4.375 11.2667V6.71667C5.46875 5.89333 6.86875 4.68 7.39375 3.16333V3.07667L7.7875 0.91C7.9625 0.866667 8.09375 0.866667 8.3125 0.866667C8.4 0.866667 8.75 1.38667 8.75 3.03333C8.75 3.68333 8.61875 4.37667 8.4 5.2H8.3125C8.05 5.2 7.875 5.37333 7.875 5.63333C7.875 5.89333 8.05 6.06667 8.3125 6.06667H12.25C12.6875 6.06667 13.0813 6.28333 13.0813 6.58667Z" fill="#02877E"/>
<path d="M6.27573 12.2662C6.16501 12.2439 5.7724 12.0837 5.40328 11.9102C5.03415 11.7366 4.62366 11.5587 4.49107 11.5148L4.25 11.4348V9.10575V6.77665L4.78588 6.34411C5.75239 5.56399 6.42184 4.84265 6.92866 4.03526C7.29063 3.45862 7.38546 3.15767 7.61197 1.86676L7.81343 0.718626L8.09576 0.705012C8.37059 0.691761 8.38005 0.695187 8.45181 0.833984C8.63046 1.1795 8.71288 1.66459 8.73769 2.51641C8.76417 3.42549 8.69655 6.15519 8.5 6.99994H7.5H8C7.23409 8.34944 7.87755 5.34057 7.87755 5.56786C7.87755 5.79674 7.9526 5.9547 8.09141 6.01795C8.16837 6.05303 9.00623 5.99994 10.5 5.99994C12.869 5.99994 12.8601 6.07988 13.1185 6.32751C13.2245 6.42908 13.25 6.49302 13.25 6.65701C13.25 6.83176 13.2257 6.88412 13.0778 7.02788C12.9831 7.11995 12.835 7.24801 12.7487 7.31245C12.5443 7.46511 12.5409 7.63166 12.7368 7.90211C12.9315 8.17092 12.9842 8.3741 12.9145 8.58753C12.8712 8.72045 12.7909 8.80093 12.5307 8.97248C12.1204 9.24302 12.0897 9.3334 12.2672 9.74967C12.422 10.1128 12.4378 10.4259 12.3087 10.5718C12.2582 10.6289 12.0703 10.7439 11.8912 10.8273C11.7121 10.9108 11.5388 11.0113 11.5061 11.0507C11.4618 11.1041 11.4548 11.2223 11.4786 11.5158C11.5149 11.9627 11.4746 12.0702 11.2177 12.2105C11.0815 12.285 10.8747 12.2925 8.77296 12.2993C7.51021 12.3033 6.38645 12.2885 6.27573 12.2662Z" fill="#009D93"/>
</svg>
