<svg width="32" height="32" viewBox="0 0 32 32" fill="none" xmlns="http://www.w3.org/2000/svg">
<path d="M22.4665 0H9.53188C7.0045 0.00297011 4.58151 1.00839 2.79454 2.79567C1.00756 4.58295 0.00254516 7.00611 0 9.53348L0 22.4681C0.00297011 24.9955 1.00839 27.4185 2.79567 29.2055C4.58295 30.9924 7.00611 31.9975 9.53348 32H22.4681C24.9955 31.997 27.4185 30.9916 29.2055 29.2043C30.9924 27.4171 31.9975 24.9939 32 22.4665V9.53188C31.997 7.0045 30.9916 4.58151 29.2043 2.79454C27.4171 1.00756 24.9939 0.00254516 22.4665 0ZM28.7816 22.4665C28.7816 23.2958 28.6182 24.117 28.3009 24.8832C27.9835 25.6494 27.5183 26.3455 26.9319 26.9319C26.3455 27.5183 25.6494 27.9835 24.8832 28.3009C24.117 28.6182 23.2958 28.7816 22.4665 28.7816H9.53188C7.8573 28.7811 6.25146 28.1156 5.0675 26.9314C3.88355 25.7471 3.21843 24.1411 3.21843 22.4665V9.53188C3.21886 7.8573 3.88438 6.25146 5.06863 5.0675C6.25289 3.88355 7.85891 3.21843 9.53348 3.21843H22.4681C24.1427 3.21886 25.7485 3.88438 26.9325 5.06863C28.1165 6.25289 28.7816 7.85891 28.7816 9.53348V22.4665Z" fill="white"/>
<path d="M15.9991 7.72363C13.8056 7.72703 11.7029 8.60002 10.1519 10.1513C8.60102 11.7025 7.72843 13.8054 7.72546 15.9989C7.72801 18.193 8.60063 20.2966 10.152 21.8482C11.7033 23.3998 13.8066 24.2728 16.0007 24.2758C18.1951 24.2733 20.2989 23.4004 21.8506 21.8487C23.4022 20.2971 24.2751 18.1933 24.2776 15.9989C24.2742 13.8048 23.4008 11.7016 21.8489 10.1506C20.297 8.59957 18.1933 7.72736 15.9991 7.72524V7.72363ZM15.9991 21.0574C14.658 21.0574 13.3718 20.5246 12.4234 19.5762C11.4751 18.6279 10.9423 17.3417 10.9423 16.0005C10.9423 14.6594 11.4751 13.3731 12.4234 12.4248C13.3718 11.4764 14.658 10.9437 15.9991 10.9437C17.3403 10.9437 18.6265 11.4764 19.5749 12.4248C20.5232 13.3731 21.056 14.6594 21.056 16.0005C21.056 17.3417 20.5232 18.6279 19.5749 19.5762C18.6265 20.5246 17.3403 21.0574 15.9991 21.0574Z" fill="white"/>
<path d="M24.293 9.76929C25.388 9.76929 26.2756 8.88162 26.2756 7.78662C26.2756 6.69163 25.388 5.80396 24.293 5.80396C23.198 5.80396 22.3103 6.69163 22.3103 7.78662C22.3103 8.88162 23.198 9.76929 24.293 9.76929Z" fill="white"/>
</svg>
