<svg width="18" height="20" viewBox="0 0 18 20" fill="none" xmlns="http://www.w3.org/2000/svg">
<path fill-rule="evenodd" clip-rule="evenodd" d="M15.875 7.5V14.375H5.875V1.875H10.25V5.3125C10.25 6.52 11.23 7.5 12.4375 7.5H15.875ZM12.125 2.02625L15.7237 5.625H12.4375C12.3546 5.625 12.2751 5.59208 12.2165 5.53347C12.1579 5.47487 12.125 5.39538 12.125 5.3125V2.02625ZM5.25 0C4.91848 0 4.60054 0.131696 4.36612 0.366117C4.1317 0.600537 4 0.918479 4 1.25V3.75H1.8125C0.95 3.75 0.25 4.45 0.25 5.3125V18.4375C0.25 19.3 0.95 20 1.8125 20H12.125C12.9875 20 13.6875 19.3 13.6875 18.4375V16.35L13.6825 16.25H16.5C16.8315 16.25 17.1495 16.1183 17.3839 15.8839C17.6183 15.6495 17.75 15.3315 17.75 15V5.5175C17.7499 5.18601 17.6182 4.86812 17.3837 4.63375L13.1163 0.36625C12.8819 0.131813 12.564 7.07968e-05 12.2325 0H5.25ZM4 15V5.625H2.125V18.125H11.8125V16.35C11.8125 16.3167 11.8142 16.2833 11.8175 16.25H5.25C4.91848 16.25 4.60054 16.1183 4.36612 15.8839C4.1317 15.6495 4 15.3315 4 15Z" fill="#9C27B0"/>
</svg>
