<svg width="20" height="20" viewBox="0 0 20 20" fill="none" xmlns="http://www.w3.org/2000/svg">
<g clip-path="url(#clip0_502_606)">
<path d="M16.1238 6.25002C15.8342 4.83203 15.0614 3.55849 13.9374 2.64677C12.8135 1.73504 11.4079 1.24165 9.96067 1.2508C8.51344 1.25994 7.11423 1.77106 6.00187 2.69692C4.8895 3.62277 4.13292 4.90598 3.86126 6.32752C2.70774 6.53284 1.67302 7.16293 0.961149 8.09352C0.249281 9.02412 -0.0880595 10.1877 0.0156542 11.3547C0.119368 12.5218 0.656607 13.6076 1.52142 14.3981C2.38624 15.1886 3.51586 15.6263 4.68751 15.625H5.00001V14.375H4.68751C3.79536 14.3773 2.93731 14.0325 2.29492 13.4134C1.65253 12.7943 1.27622 11.9495 1.2456 11.0579C1.21499 10.1663 1.53248 9.29771 2.13089 8.63601C2.7293 7.97431 3.56168 7.57139 4.45189 7.51252L4.97501 7.47689L5.03126 6.95627C5.15749 5.79333 5.68781 4.71156 6.5298 3.89952C7.37179 3.08748 8.47205 2.59666 9.63879 2.51262C10.8055 2.42857 11.9648 2.75663 12.9145 3.43961C13.8641 4.12259 14.544 5.11718 14.8356 6.25002H16.1238Z" fill="#FF9800"/>
<path d="M17.5 7.5H11.25C10.9185 7.5 10.6005 7.6317 10.3661 7.86612C10.1317 8.10054 10 8.41848 10 8.75V11.25H7.5C7.16848 11.25 6.85054 11.3817 6.61612 11.6161C6.3817 11.8505 6.25 12.1685 6.25 12.5V18.75H18.75V8.75C18.75 8.41848 18.6183 8.10054 18.3839 7.86612C18.1495 7.6317 17.8315 7.5 17.5 7.5ZM7.5 17.5V12.5H10V17.5H7.5ZM17.5 17.5H11.25V8.75H17.5V17.5Z" fill="#FF9800"/>
<path d="M12.5 10H13.75V12.5H12.5V10ZM15 10H16.25V12.5H15V10ZM12.5 13.75H13.75V16.25H12.5V13.75ZM15 13.75H16.25V16.25H15V13.75Z" fill="#FF9800"/>
</g>
<defs>
<clipPath id="clip0_502_606">
<rect width="20" height="20" fill="white"/>
</clipPath>
</defs>
</svg>
