<svg width="42" height="42" viewBox="0 0 42 42" fill="none" xmlns="http://www.w3.org/2000/svg">
<path d="M6 7H36M13.0417 12.323H36M13.0417 25.2861H36M13.0417 32.1357H36M36 20.2243H6M6 10.4767H9.78621V14.1672H6V10.4767ZM9.78621 27.1314H6V23.4409H9.78621V27.1314ZM6 30.3086H9.78621V33.9991H6V30.3086Z" stroke="#2563EB" stroke-width="1.5" stroke-linecap="round" stroke-linejoin="round"/>
<path d="M36.6757 1H5.32432C4.17744 1 3.07753 1.4556 2.26657 2.26657C1.4556 3.07753 1 4.17744 1 5.32432V36.6757C1 37.8226 1.4556 38.9225 2.26657 39.7334C3.07753 40.5444 4.17744 41 5.32432 41H36.6757C37.8226 41 38.9225 40.5444 39.7334 39.7334C40.5444 38.9225 41 37.8226 41 36.6757V5.32432C41 4.17744 40.5444 3.07753 39.7334 2.26657C38.9225 1.4556 37.8226 1 36.6757 1Z" stroke="#2563EB" stroke-width="1.5" stroke-linecap="round" stroke-linejoin="round"/>
</svg>
