<svg width="20" height="20" viewBox="0 0 20 20" fill="none" xmlns="http://www.w3.org/2000/svg">
<path d="M11.6667 11.6667L13.75 13.75M13.6942 15.4375C13.5737 15.3244 13.4772 15.1883 13.4104 15.0371C13.3436 14.886 13.3078 14.723 13.3052 14.5578C13.3026 14.3926 13.3333 14.2286 13.3953 14.0754C13.4573 13.9223 13.5495 13.7832 13.6663 13.6663C13.7832 13.5495 13.9223 13.4573 14.0754 13.3953C14.2286 13.3333 14.3926 13.3026 14.5578 13.3052C14.723 13.3078 14.886 13.3436 15.0371 13.4104C15.1883 13.4772 15.3244 13.5737 15.4375 13.6942L17.9725 16.2292C18.093 16.3423 18.1895 16.4784 18.2563 16.6296C18.3231 16.7807 18.3589 16.9437 18.3615 17.1089C18.3641 17.2741 18.3334 17.4381 18.2714 17.5913C18.2094 17.7444 18.1172 17.8836 18.0004 18.0004C17.8836 18.1172 17.7444 18.2094 17.5913 18.2714C17.4381 18.3334 17.2741 18.3641 17.1089 18.3615C16.9437 18.3589 16.7807 18.3231 16.6296 18.2563C16.4784 18.1895 16.3423 18.093 16.2292 17.9725L13.6942 15.4375ZM13.3334 7.50002C13.3334 5.95292 12.7188 4.46919 11.6248 3.37523C10.5308 2.28127 9.04712 1.66669 7.50002 1.66669C5.95292 1.66669 4.46919 2.28127 3.37523 3.37523C2.28127 4.46919 1.66669 5.95292 1.66669 7.50002C1.66669 9.04712 2.28127 10.5308 3.37523 11.6248C4.46919 12.7188 5.95292 13.3334 7.50002 13.3334C9.04712 13.3334 10.5308 12.7188 11.6248 11.6248C12.7188 10.5308 13.3334 9.04712 13.3334 7.50002Z" stroke="#4CAF50" stroke-width="1.25" stroke-linecap="round" stroke-linejoin="round"/>
</svg>
