<svg width="16" height="16" viewBox="0 0 16 16" fill="none" xmlns="http://www.w3.org/2000/svg">
<path d="M15.5 6.43333H9.85002L12.1334 4.08333C9.85836 1.83333 6.17502 1.75 3.90002 4C1.62502 6.25833 1.62502 9.9 3.90002 12.1583C6.17502 14.4167 9.85836 14.4167 12.1334 12.1583C13.2667 11.0417 13.8334 9.73333 13.8334 8.08333H15.5C15.5 9.73333 14.7667 11.875 13.3 13.325C10.375 16.225 5.62502 16.225 2.70002 13.325C-0.216643 10.4333 -0.241643 5.73333 2.68336 2.84167C5.60836 -0.0500001 10.3 -0.0500001 13.225 2.84167L15.5 0.5V6.43333ZM8.41669 4.66667V8.20833L11.3334 9.94167L10.7334 10.95L7.16669 8.83333V4.66667H8.41669Z" fill="#61B4F6"/>
</svg>
