<svg width="21" height="17" viewBox="0 0 21 17" fill="none" xmlns="http://www.w3.org/2000/svg">
<path d="M1.41892 0.691294L2.13851 0L19.1149 16.3087L18.3953 17L15.0101 13.7383C13.6216 14.2932 12.1013 14.6048 10.5 14.6048C5.87838 14.6048 1.88514 12.0246 0 8.27606C0.983108 6.32875 2.52365 4.70275 4.41892 3.58305L1.41892 0.691294ZM10.5 13.6312C11.8074 13.6312 13.0642 13.4072 14.2196 12.9885L13.0845 11.8883C12.3446 12.3751 11.4628 12.6575 10.5 12.6575C7.96622 12.6575 5.93919 10.7102 5.93919 8.27606C5.93919 7.35109 6.23311 6.50401 6.73986 5.79324L5.16892 4.29381C3.47194 5.24359 2.07717 6.62053 1.13514 8.27606C2.93919 11.4696 6.44595 13.6312 10.5 13.6312ZM19.8649 8.27606C18.0608 5.08247 14.5541 2.92096 10.5 2.92096C9.33446 2.92096 8.19932 3.10596 7.14527 3.437L6.35473 2.67755C7.64189 2.20046 9.04054 1.94731 10.5 1.94731C15.1216 1.94731 19.1149 4.52749 21 8.27606C20.079 10.1122 18.6525 11.6712 16.875 12.7841L16.1453 12.0733C17.6959 11.1386 18.9831 9.83391 19.8649 8.27606ZM10.5 3.89462C13.0338 3.89462 15.0608 5.84192 15.0608 8.27606C15.0608 9.07446 14.8378 9.81443 14.4527 10.457L13.7027 9.73654C13.9257 9.28866 14.0473 8.80183 14.0473 8.27606C14.0473 7.37226 13.6736 6.50547 13.0083 5.86639C12.3431 5.2273 11.4408 4.86827 10.5 4.86827C9.9527 4.86827 9.44594 4.98511 8.97973 5.19931L8.22973 4.47881C8.89865 4.10882 9.66892 3.89462 10.5 3.89462ZM6.9527 8.27606C6.9527 9.17986 7.32643 10.0466 7.99168 10.6857C8.65693 11.3248 9.5592 11.6838 10.5 11.6838C11.1791 11.6838 11.8074 11.4989 12.3446 11.197L7.45946 6.50401C7.14527 7.02005 6.9527 7.62371 6.9527 8.27606Z" fill="#006B64"/>
</svg>
