<svg width="84" height="85" viewBox="0 0 84 85" fill="none" xmlns="http://www.w3.org/2000/svg">
<path d="M25.3317 42.2089H16.7503C15.5991 42.2089 14.6572 41.2695 14.6572 40.1213V31.562C14.6572 30.4138 15.5991 29.4744 16.7503 29.4744H25.3317C26.4829 29.4744 27.4248 30.4138 27.4248 31.562V40.1213C27.4248 41.2695 26.4829 42.2089 25.3317 42.2089Z" stroke="#04887F" stroke-width="2" stroke-miterlimit="10" stroke-linecap="round" stroke-linejoin="round"/>
<path d="M43.1227 42.2089H34.5413C33.3901 42.2089 32.4482 41.2695 32.4482 40.1213V31.562C32.4482 30.4138 33.3901 29.4744 34.5413 29.4744H43.1227C44.2739 29.4744 45.2158 30.4138 45.2158 31.562V40.1213C45.2158 41.2695 44.2739 42.2089 43.1227 42.2089Z" stroke="#006B64" stroke-width="2" stroke-miterlimit="10"/>
<path d="M19.9946 14.2345H13.5061C12.355 14.2345 11.4131 13.2951 11.4131 12.1469V3.58763C11.4131 2.43943 12.355 1.5 13.5061 1.5H19.9946C21.1457 1.5 22.0876 2.43943 22.0876 3.58763V12.1469C22.0876 13.2951 21.1457 14.2345 19.9946 14.2345Z" stroke="#006B64" stroke-width="2" stroke-miterlimit="10"/>
<path d="M64.0531 14.2345H57.5647C56.4135 14.2345 55.4717 13.2951 55.4717 12.1469V3.58763C55.4717 2.43943 56.4135 1.5 57.5647 1.5H64.0531C65.2043 1.5 66.1462 2.43943 66.1462 3.58763V12.1469C66.1462 13.2951 65.2043 14.2345 64.0531 14.2345Z" stroke="#006B64" stroke-width="2" stroke-miterlimit="10"/>
<path d="M25.3317 59.3275H16.7503C15.5991 59.3275 14.6572 58.3881 14.6572 57.2399V48.6806C14.6572 47.5324 15.5991 46.593 16.7503 46.593H25.3317C26.4829 46.593 27.4248 47.5324 27.4248 48.6806V57.2399C27.4248 58.3881 26.4829 59.3275 25.3317 59.3275Z" stroke="#006B64" stroke-width="2" stroke-miterlimit="10"/>
<path d="M43.1227 59.3275H34.5413C33.3901 59.3275 32.4482 58.3881 32.4482 57.2399V48.6806C32.4482 47.5324 33.3901 46.593 34.5413 46.593H43.1227C44.2739 46.593 45.2158 47.5324 45.2158 48.6806V57.2399C45.2158 58.3881 44.2739 59.3275 43.1227 59.3275Z" stroke="#006B64" stroke-width="2" stroke-miterlimit="10"/>
<path d="M25.3317 76.5504H16.7503C15.5991 76.5504 14.6572 75.611 14.6572 74.4628V65.9035C14.6572 64.7554 15.5991 63.8159 16.7503 63.8159H25.3317C26.4829 63.8159 27.4248 64.7554 27.4248 65.9035V74.4628C27.4248 75.611 26.4829 76.5504 25.3317 76.5504Z" stroke="#006B64" stroke-width="2" stroke-miterlimit="10"/>
<path d="M43.1227 76.5504H34.5413C33.3901 76.5504 32.4482 75.611 32.4482 74.4628V65.9035C32.4482 64.7554 33.3901 63.8159 34.5413 63.8159H43.1227C44.2739 63.8159 45.2158 64.7554 45.2158 65.9035V74.4628C45.2158 75.611 44.2739 76.5504 43.1227 76.5504Z" stroke="#006B64" stroke-width="2" stroke-miterlimit="10"/>
<path d="M60.9133 42.2089H52.3318C51.1806 42.2089 50.2388 41.2695 50.2388 40.1213V31.562C50.2388 30.4138 51.1806 29.4744 52.3318 29.4744H60.9133C62.0644 29.4744 63.0063 30.4138 63.0063 31.562V40.1213C63.0063 41.2695 62.0644 42.2089 60.9133 42.2089Z" stroke="#006B64" stroke-width="2" stroke-miterlimit="10"/>
<path d="M48.7736 82.5001H6.28487C3.98253 82.5001 1.99414 80.6212 1.99414 78.2205V22.5852H75.0413V42.9396" stroke="#006B64" stroke-width="4" stroke-miterlimit="10" stroke-linecap="round" stroke-linejoin="round"/>
<path d="M2.09863 22.5854V12.1473C2.09863 9.85092 3.98237 7.86768 6.38937 7.86768H10.4708" stroke="#006B64" stroke-width="4" stroke-miterlimit="10" stroke-linejoin="round"/>
<path d="M75.0415 22.5854V12.1473C75.0415 9.85092 73.1577 7.86768 70.7507 7.86768H67.7158" stroke="#006B64" stroke-width="4" stroke-miterlimit="10" stroke-linecap="round" stroke-linejoin="round"/>
<path d="M21.041 7.86768H55.9948" stroke="#006B64" stroke-width="4" stroke-miterlimit="10"/>
<path d="M56.9369 48.889L80.065 58.179C81.4255 58.7009 81.5301 60.4754 80.379 61.3104L74.9371 64.6506C74.0999 65.1725 73.8905 66.4251 74.5185 67.2602L81.6348 76.237C82.2627 76.9676 82.0534 78.1158 81.3208 78.6377L79.6464 79.9947L77.972 81.3516C77.2394 81.9779 76.0882 81.7692 75.565 81.0385L68.4486 72.0617C67.8207 71.2266 66.5649 71.1223 65.8323 71.8529L61.3323 76.3413C60.2858 77.3851 58.6113 76.7589 58.402 75.4019L54.7392 50.8723C54.4253 49.4109 55.6811 48.3671 56.9369 48.889Z" stroke="#04887F" stroke-width="4" stroke-miterlimit="10" stroke-linecap="round" stroke-linejoin="round"/>
</svg>
