<svg width="57" height="81" viewBox="0 0 57 81" fill="none" xmlns="http://www.w3.org/2000/svg">
<path d="M48.641 32.359V21.402C48.7509 15.8515 46.6578 10.4835 42.8195 6.47254C38.9813 2.46158 33.7105 0.134315 28.1606 0C22.6106 0.134315 17.3398 2.46158 13.5016 6.47254C9.66336 10.4835 7.5702 15.8515 7.68015 21.402V32.359H0V75.8799C0 77.2378 0.539437 78.5402 1.49964 79.5004C2.45985 80.4606 3.76217 81 5.1201 81H51.201C52.5589 81 53.8613 80.4606 54.8215 79.5004C55.7817 78.5402 56.3211 77.2378 56.3211 75.8799V32.359H48.641ZM30.7206 58.5484V65.6397H25.6005V58.318C24.3541 57.6766 23.3645 56.6285 22.7958 55.3473C22.2272 54.0662 22.1136 52.6291 22.4741 51.2746C22.8346 49.92 23.6474 48.7294 24.7776 47.9004C25.9078 47.0714 27.2875 46.6537 28.6878 46.7167C30.0881 46.7797 31.4247 47.3196 32.4759 48.2468C33.5271 49.174 34.2296 50.4328 34.467 51.8142C34.7043 53.1957 34.4622 54.6167 33.7808 55.8416C33.0993 57.0665 32.0195 58.0216 30.7206 58.5484ZM43.5209 32.359H12.8003V21.402C12.6899 17.2093 14.2435 13.1433 17.1217 10.0924C19.9998 7.04159 23.9685 5.25395 28.1606 5.1201C32.3526 5.25395 36.3213 7.04159 39.1995 10.0924C42.0776 13.1433 43.6312 17.2093 43.5209 21.402V32.359Z" fill="#006B64"/>
</svg>
