<svg width="81" height="81" viewBox="0 0 81 81" fill="none" xmlns="http://www.w3.org/2000/svg">
<path fill-rule="evenodd" clip-rule="evenodd" d="M34.8061 1.75236C36.73 0.606018 38.936 0 41.1849 0C43.4337 0 45.6397 0.606018 47.5637 1.75236L52.0934 4.48011C58.4488 8.30466 65.6871 9.15627 72.9587 10.0144C75.3091 10.2925 77.6619 10.5683 79.9901 10.947C79.9901 10.947 80.0412 14.9621 79.9879 16.7835L79.5231 32.4385C79.1228 45.8649 73.0587 58.5952 62.6561 67.8468C57.7483 72.2099 52.6716 76.1527 46.8387 79.4277C45.1195 80.3842 43.1923 80.9206 41.2188 80.9918C39.2454 81.0631 37.2834 80.6671 35.4977 79.8371C28.762 76.6846 22.7979 72.6871 17.352 67.8468C6.94941 58.5952 0.885292 45.8649 0.487244 32.4385L0.0247081 16.8338C-0.0308852 14.9861 0.0247081 10.947 0.0247081 10.947C1.91488 10.7281 3.84063 10.5464 5.78195 10.3647C14.35 9.56346 23.2027 8.73594 30.4654 4.36628L34.8061 1.75236ZM35.5377 35.0284V19.7039H44.4326V35.0284H59.9988V43.7852H44.4326V59.1097H35.5377V43.7852H19.9716V35.0284H35.5377Z" fill="#006B64"/>
</svg>
