<svg width="82" height="81" viewBox="0 0 82 81" fill="none" xmlns="http://www.w3.org/2000/svg">
<path fill-rule="evenodd" clip-rule="evenodd" d="M80.1622 0.846731C80.5589 1.24297 80.8318 1.74593 80.9479 2.29444C81.064 2.84294 81.0181 3.41336 80.816 3.9363L51.8874 79.1506C51.6827 79.6828 51.3252 80.1426 50.8599 80.4723C50.3946 80.802 49.8422 80.9868 49.2722 81.0034C48.7022 81.0201 48.14 80.868 47.6562 80.5661C47.1724 80.2643 46.7886 79.8261 46.553 79.3068L34.4551 52.6925L52.2519 34.8899C53.0184 34.0673 53.4357 32.9793 53.4159 31.8551C53.396 30.731 52.9406 29.6584 52.1456 28.8633C51.3506 28.0683 50.278 27.6129 49.1538 27.5931C48.0296 27.5732 46.9417 27.9905 46.1191 28.757L28.3164 46.5539L1.70215 34.4617C1.18124 34.2265 0.7417 33.8422 0.438998 33.3573C0.136296 32.8725 -0.0160004 32.3089 0.00133063 31.7376C0.0186617 31.1663 0.204843 30.6129 0.536377 30.1473C0.867912 29.6817 1.32994 29.3248 1.86415 29.1215L77.0784 0.192945C77.6006 -0.00796625 78.1699 -0.0531386 78.7172 0.0629011C79.2645 0.178941 79.7665 0.451213 80.1622 0.846731Z" fill="#006B64"/>
</svg>
