<svg  viewBox="0 0 14 15" fill="none" xmlns="http://www.w3.org/2000/svg">
<path d="M7.01453 7.5C8.07539 7.5 9.09281 7.10491 9.84295 6.40165C10.5931 5.69839 11.0145 4.74456 11.0145 3.75C11.0145 2.75544 10.5931 1.80161 9.84295 1.09835C9.09281 0.395088 8.07539 0 7.01453 0C5.95366 0 4.93624 0.395088 4.1861 1.09835C3.43595 1.80161 3.01453 2.75544 3.01453 3.75C3.01453 4.74456 3.43595 5.69839 4.1861 6.40165C4.93624 7.10491 5.95366 7.5 7.01453 7.5ZM5.5864 8.90625C2.50828 8.90625 0.0145264 11.2441 0.0145264 14.1299C0.0145264 14.6104 0.430151 15 0.942651 15H13.0864C13.5989 15 14.0145 14.6104 14.0145 14.1299C14.0145 11.2441 11.5208 8.90625 8.44265 8.90625H5.5864Z" fill="#006B64"/>
</svg>
