<svg width="15" height="14" viewBox="0 0 15 14" fill="none" xmlns="http://www.w3.org/2000/svg">
<path d="M11.9146 1.4H11.2146V0.7C11.2146 0.28 10.9346 0 10.5146 0C10.0946 0 9.81459 0.28 9.81459 0.7V1.4H4.21459V0.7C4.21459 0.28 3.93459 0 3.51459 0C3.09459 0 2.81459 0.28 2.81459 0.7V1.4H2.11459C0.924587 1.4 0.0145874 2.31 0.0145874 3.5V4.2H14.0146V3.5C14.0146 2.31 13.1046 1.4 11.9146 1.4ZM0.0145874 11.9C0.0145874 13.09 0.924587 14 2.11459 14H11.9146C13.1046 14 14.0146 13.09 14.0146 11.9V5.6H0.0145874V11.9ZM10.5146 7C10.9346 7 11.2146 7.28 11.2146 7.7C11.2146 8.12 10.9346 8.4 10.5146 8.4C10.0946 8.4 9.81459 8.12 9.81459 7.7C9.81459 7.28 10.0946 7 10.5146 7ZM10.5146 9.8C10.9346 9.8 11.2146 10.08 11.2146 10.5C11.2146 10.92 10.9346 11.2 10.5146 11.2C10.0946 11.2 9.81459 10.92 9.81459 10.5C9.81459 10.08 10.0946 9.8 10.5146 9.8ZM7.01459 7C7.43459 7 7.71459 7.28 7.71459 7.7C7.71459 8.12 7.43459 8.4 7.01459 8.4C6.59459 8.4 6.31459 8.12 6.31459 7.7C6.31459 7.28 6.59459 7 7.01459 7ZM7.01459 9.8C7.43459 9.8 7.71459 10.08 7.71459 10.5C7.71459 10.92 7.43459 11.2 7.01459 11.2C6.59459 11.2 6.31459 10.92 6.31459 10.5C6.31459 10.08 6.59459 9.8 7.01459 9.8ZM3.51459 7C3.93459 7 4.21459 7.28 4.21459 7.7C4.21459 8.12 3.93459 8.4 3.51459 8.4C3.09459 8.4 2.81459 8.12 2.81459 7.7C2.81459 7.28 3.09459 7 3.51459 7ZM3.51459 9.8C3.93459 9.8 4.21459 10.08 4.21459 10.5C4.21459 10.92 3.93459 11.2 3.51459 11.2C3.09459 11.2 2.81459 10.92 2.81459 10.5C2.81459 10.08 3.09459 9.8 3.51459 9.8Z" fill="#006B64"/>
</svg>
