<svg width="15" height="14" viewBox="0 0 15 14" fill="none" xmlns="http://www.w3.org/2000/svg">
<path d="M13.1979 14C11.5775 14 9.97656 13.6469 8.39508 12.9407C6.8136 12.2344 5.37471 11.2329 4.07842 9.93611C2.78212 8.6393 1.78086 7.20041 1.07464 5.61944C0.368415 4.03848 0.0150449 2.43756 0.0145264 0.816667C0.0145264 0.583333 0.0923041 0.388889 0.24786 0.233333C0.403415 0.0777777 0.59786 0 0.831193 0H3.98119C4.16267 0 4.32471 0.0617036 4.4673 0.185111C4.6099 0.308518 4.69416 0.454222 4.72008 0.622222L5.22564 3.34444C5.25156 3.55185 5.24508 3.72685 5.20619 3.86944C5.1673 4.01204 5.09601 4.13519 4.9923 4.23889L3.10619 6.14444C3.36545 6.62407 3.67319 7.08737 4.02942 7.53433C4.38564 7.9813 4.7779 8.41245 5.20619 8.82778C5.60805 9.22963 6.02934 9.60244 6.47008 9.94622C6.91082 10.29 7.37749 10.6042 7.87008 10.8889L9.69786 9.06111C9.81453 8.94444 9.96697 8.85707 10.1552 8.799C10.3434 8.74093 10.528 8.72459 10.709 8.75L13.3923 9.29444C13.5738 9.3463 13.7229 9.44041 13.8395 9.57678C13.9562 9.71315 14.0145 9.86533 14.0145 10.0333V13.1833C14.0145 13.4167 13.9367 13.6111 13.7812 13.7667C13.6256 13.9222 13.4312 14 13.1979 14Z" fill="#006B64"/>
</svg>
