<svg width="250" height="65" viewBox="0 0 250 65" fill="none" xmlns="http://www.w3.org/2000/svg">
<path d="M150.741 15.6066C152.369 15.4971 156.4 15.2589 157.839 15.7457C158.245 16.1898 158.361 16.9874 158.406 17.5706C158.505 18.8568 158.814 22.4705 157.963 23.4274C157.697 23.7267 157.34 23.7165 156.962 23.7437C155.239 23.7551 151.613 24.0696 150.15 23.4974C149.955 23.2866 149.874 23.0404 149.8 22.7692C149.474 21.5868 149.3 17.0674 149.916 16.0274C150.088 15.7363 150.435 15.6804 150.741 15.6066Z" fill="#006B64"/>
<path d="M150.788 28.6786C152.091 28.5287 156.987 28.4216 157.911 28.8839C158.084 29.4565 158.151 30.0604 158.182 30.6557C158.292 32.6949 158.206 34.7808 158.206 36.8239L158.202 48.6126L158.191 59.3024C158.189 60.7381 158.31 62.2365 158.227 63.6618C158.209 63.968 158.113 64.3047 157.896 64.5318C157.549 64.8928 157.009 64.8305 156.544 64.8355C154.569 64.9386 152.553 64.842 150.571 64.8858C150.581 64.8734 150.592 64.8619 150.602 64.8495C150.619 64.8286 150.635 64.8071 150.651 64.7862C150.936 64.4207 151.014 64.0452 151.061 63.595C151.354 60.7705 151.124 57.3189 151.121 54.4301C151.116 49.7849 151.296 45.0675 150.976 40.4357C150.848 38.5767 150.221 36.9684 149.883 35.1671C149.637 33.8566 149.674 32.4599 149.713 31.1311C149.729 30.5711 149.692 29.8271 149.909 29.3123C150.064 28.9455 150.444 28.8214 150.788 28.6786Z" fill="#006B64"/>
<path d="M29.7189 28.9358C30.2957 29.1334 31.8982 32.5142 32.3735 33.307C31.6632 34.9569 30.5518 36.4848 29.5767 37.9895L25.4116 44.4105C21.0047 51.209 16.7 58.0847 12.2173 64.8324C9.1775 65.1048 5.96456 64.9056 2.9066 64.9071L0 64.9774C1.29179 63.6019 2.45534 62.0791 3.65398 60.622L9.87307 53.0556L29.7189 28.9358Z" fill="#006B64"/>
<path d="M50.1709 28.897C51.2603 29.3616 54.3079 30.3376 54.7778 31.3724C53.6075 38.2376 52.8311 45.181 51.8987 52.0831L50.8123 60.0932C50.5998 61.6942 50.3199 63.3162 50.2664 64.9307C47.6055 64.7987 44.9155 64.8674 42.251 64.8669C38.9026 64.8659 35.5447 64.8226 32.1976 64.9088C33.1164 63.7738 33.6769 62.1061 34.2997 60.774L37.5462 53.8037C37.1907 53.5118 36.8243 53.3809 36.3815 53.2713C36.6971 52.3814 37.1559 51.5199 37.5574 50.6644L37.8891 50.6006L37.9296 50.5239C38.3128 50.5518 38.6893 50.5847 39.0735 50.5518C41.0555 46.6376 42.8141 42.585 44.6777 38.6111C46.3029 35.1461 47.7155 31.8854 50.1709 28.897ZM37.5574 50.6644C37.1559 51.5199 36.6971 52.3814 36.3815 53.2713C36.8243 53.3809 37.1907 53.5118 37.5462 53.8037C38.0693 52.7264 38.5784 51.6424 39.0735 50.5518C38.6893 50.5847 38.3128 50.5518 37.9296 50.5239L37.8891 50.6006L37.5574 50.6644Z" fill="#006B64"/>
<path d="M199.57 35.3453C200.465 32.9958 202.521 31.1736 204.783 30.1644C207.255 29.0619 209.892 28.9245 212.555 28.9305C213.148 28.9319 213.895 28.8582 214.455 29.0497C214.589 29.0958 214.761 29.1748 214.818 29.3091C215.099 29.9699 215.119 34.4262 214.863 35.05C214.823 35.1476 214.771 35.2345 214.711 35.3206C212.789 35.3552 208.717 34.8714 207.307 36.3165C206.863 36.7719 206.459 37.5463 206.484 38.1967C206.512 38.9282 206.985 39.5124 207.51 39.977C208.355 40.7225 209.446 41.2508 210.411 41.826L215.665 44.9708C219.344 47.1485 223.366 49.2829 223.68 54.066C223.839 56.4827 222.858 59.3237 221.242 61.1344C219.377 63.2235 216.367 64.6532 213.573 64.8011C211.01 64.9371 208.412 64.8524 205.846 64.8444C203.462 64.8365 201.05 64.9117 198.672 64.7643C198.893 64.339 198.936 59.5224 198.775 58.9667C198.749 58.8751 198.709 58.7899 198.668 58.7043C198.659 58.6848 198.65 58.6649 198.641 58.6455C201.868 58.392 205.169 58.5384 208.407 58.5384C209.986 58.5379 211.648 58.6196 213.206 58.3427C213.969 58.2068 214.815 57.9687 215.341 57.3657C215.804 56.8348 215.859 55.9872 215.798 55.311C215.702 54.2368 215.061 53.4221 214.253 52.7578C212.153 51.0333 208.118 48.9377 205.615 47.4448C204.548 46.8084 203.246 46.1704 202.395 45.2591C202.082 44.923 202.001 44.5679 201.957 44.1247C201.89 43.4395 202.003 42.7005 201.659 42.08C201.749 41.7897 201.742 41.5267 201.716 41.2279C201.579 39.6603 200.809 36.3769 199.57 35.3453Z" fill="#006B64"/>
<path d="M13.5656 64.8669C14.8489 63.6025 16.7806 60.1191 17.8594 58.4369L28.5433 41.9048C29.9457 39.7365 31.9453 36.1454 33.5532 34.3441C34.51 33.2723 35.8076 32.4024 36.9475 31.5299C38.8397 30.1027 40.718 28.6576 42.5824 27.1945C43.6559 28.5572 45.3512 31.3124 45.9066 32.8948C44.7434 35.6811 43.3399 38.4074 42.0493 41.1399C40.5515 44.3115 39.1285 47.5295 37.5574 50.6644C37.1559 51.5199 36.697 52.3814 36.3815 53.2713C35.7325 54.2797 35.2619 55.5715 34.7493 56.6641C33.4625 59.407 32.2213 62.1743 30.9127 64.9063C25.1304 64.8621 19.348 64.849 13.5656 64.8669Z" fill="#006B64"/>
<path d="M167.541 34.9474C167.697 35.221 167.756 35.4575 167.775 35.7704C167.874 37.4025 167.794 39.0907 167.793 40.728L167.791 50.2192L167.785 58.913C167.784 60.5474 168.016 62.5692 167.611 64.1458C167.552 64.3734 167.527 64.5487 167.307 64.6662C166.826 64.9237 161.013 65.0004 160.393 64.8022C159.957 64.6628 159.637 64.4148 159.433 64.0009C159.265 63.6618 159.195 63.2604 159.179 62.8845C159.109 61.3023 159.23 59.6665 159.23 58.0764L159.225 45.9111C159.166 40.0661 159.194 34.2216 159.309 28.3778C159.345 26.929 159.306 25.4732 159.395 24.0267C159.424 23.5276 159.487 23.0329 159.584 22.5426C159.681 22.0522 159.812 21.5708 159.976 21.0985C160.672 19.115 161.963 17.5578 163.879 16.6454C166.506 15.395 169.552 15.4281 172.396 15.4294C173.093 15.4297 174.108 15.3286 174.77 15.5839C174.991 15.6694 175.147 15.8902 175.241 16.0984C175.479 16.6283 175.425 17.4989 175.228 18.0352C175.518 18.518 175.437 19.4878 175.316 20.0265C175.296 20.1131 175.264 20.1946 175.225 20.2744C175.338 20.6492 175.382 20.8961 175.272 21.277C174.505 22.3183 171.064 21.8 169.754 22.0419C169.291 22.1275 168.863 22.3463 168.444 22.5554C168.374 23.1448 167.898 23.7463 167.81 24.3898C167.638 25.6419 168.179 27.5274 167.524 28.628C169 28.521 173.545 28.2961 174.766 28.8764C175.073 29.0224 175.374 29.2681 175.479 29.603C175.614 30.0393 175.487 30.8864 175.273 31.2834C175.27 31.3121 175.268 31.341 175.263 31.3696C175.233 31.555 172.519 34.6584 172.22 34.872C170.704 35.0559 169.072 34.9638 167.541 34.9474Z" fill="#006B64"/>
<path d="M132.513 29.052C133.516 29.0183 134.519 29.0077 135.522 29.0202C139.505 29.1076 143.797 29.5702 146.691 32.6129C148.312 34.318 149.263 36.6679 149.691 38.9521C150.068 40.9664 149.945 43.0341 149.927 45.0723L149.915 51.35L149.92 60.4148C149.923 61.4655 150.028 62.5377 149.993 63.584C149.981 63.9525 149.891 64.3832 149.601 64.6382C149.399 64.816 149.11 64.8937 148.847 64.9166C148.175 64.9749 147.457 64.8424 146.779 64.8339C145.614 64.82 144.434 64.9256 143.272 64.8379C143.064 64.822 142.586 64.7951 142.475 64.5889C141.713 63.1716 142.918 44.8527 142.021 41.0118C141.814 40.1263 141.373 39.3355 140.776 38.6503C139.6 37.2983 138.223 36.8642 136.483 36.7385C135.147 36.5737 133.61 36.5998 132.27 36.7483C130.078 36.9912 128.44 38.1424 127.553 40.1731C127.248 40.8728 127.075 41.6213 126.996 42.3787C126.755 44.6904 126.904 47.1365 126.902 49.4621C126.899 53.201 126.845 56.9488 126.908 60.6867C126.925 61.72 127.221 64.0501 126.586 64.8419C125.353 64.8548 120.158 65.1262 119.461 64.6088C119.423 64.4809 119.388 64.3469 119.374 64.2144C119.214 62.6926 119.097 60.4825 119.444 59.006C119.893 57.0972 120.629 55.6894 120.751 53.6322C120.996 49.5258 120.89 45.3965 120.873 41.2837C120.865 39.4819 120.718 37.5418 120.926 35.7577C121.063 34.5836 121.443 33.8251 122.212 32.9227C124.816 29.8633 128.748 29.3518 132.513 29.052Z" fill="#006B64"/>
<path d="M89.2999 32.389C89.3024 31.443 89.0759 29.9668 89.7459 29.2484C90.3578 28.9013 95.5036 28.8407 96.3215 29.0798C96.44 29.1144 96.607 29.1609 96.6655 29.2739C97.2209 30.3528 96.9919 32.4587 96.9919 33.6761C96.9904 36.8249 96.637 51.1324 97.3129 53.1951C97.8323 54.7797 99.2257 56.3249 100.818 56.8807C102.664 57.5251 107.211 57.5136 108.977 56.6605C110.291 56.0261 111.427 54.7567 111.896 53.3813C112.744 50.8889 112.339 37.8541 112.335 34.4071C112.333 32.9931 112.168 31.3492 112.419 29.9695C112.466 29.7095 112.546 29.3826 112.795 29.2524C113.469 28.9008 118.523 28.8454 119.34 29.1286C119.493 29.1817 119.611 29.2821 119.719 29.3998C120.139 30.4507 120.067 51.7803 119.829 54.1995C119.697 55.5371 119.302 56.8329 118.772 58.0654C117.629 60.7236 115.673 62.738 112.957 63.8146C108.67 65.5147 104.019 64.6134 99.5431 64.7384L98.9142 64.706C98.6147 64.4326 97.6204 64.2409 97.2074 64.1054C94.6577 63.2723 92.9255 62.0139 91.4511 59.7645C91.1102 59.2441 90.8617 58.6659 90.5003 58.161L90.4593 58.1047L90.3833 57.7865C90.2903 57.4543 90.1713 57.1371 90.0453 56.8159C89.8478 56.1919 89.7144 55.5894 89.6164 54.9425L89.4899 54.6228C88.998 47.2496 89.4204 39.7808 89.2999 32.389Z" fill="#006B64"/>
<path d="M184.798 29.0311C189.1 28.9518 193.319 29.7593 196.539 32.8613C199.104 35.3319 200.823 39.4193 200.843 42.9998C200.844 43.185 200.82 43.3942 200.758 43.5695C200.833 43.7368 200.899 43.936 200.92 44.1193C201.022 45.0405 201.037 48.7326 200.517 49.3845C198.698 49.6658 195.332 49.4343 193.32 49.4318L178.456 49.4681C178.675 50.0229 178.686 50.6389 178.742 51.2275C178.925 53.1303 179.353 54.8399 180.68 56.2975C183.772 59.6923 190.754 58.4384 194.973 58.6495C194.984 58.6689 194.994 58.6884 195.006 58.7073C195.055 58.7914 195.106 58.8746 195.139 58.9672C195.408 59.7247 195.361 64.2115 194.998 64.9256C188.896 64.8181 182.303 65.9032 177.024 62.3232C173.868 60.1823 172.103 57.1491 171.402 53.4615C171.02 51.4511 171.025 49.4159 171.024 47.3781C171.021 42.948 171.122 38.5114 173.745 34.704C176.74 30.3552 180.069 29.8975 184.798 29.0311ZM185.738 35.4015C183.627 35.6038 181.909 36.2051 180.522 37.881C178.501 40.3231 179.024 43.4759 178.42 44.2712C180.835 44.299 183.251 44.3118 185.666 44.3095C186.626 44.3135 192.643 44.4758 193.088 44.3025C193.336 41.95 192.891 39.6573 191.363 37.7809C191.23 37.6182 191.089 37.4625 190.941 37.3138C190.792 37.1647 190.637 37.0234 190.475 36.8898C190.312 36.7561 190.143 36.6308 189.969 36.5137C189.794 36.3966 189.614 36.2883 189.428 36.1889C189.243 36.0895 189.053 35.9993 188.858 35.9185C188.664 35.8377 188.466 35.7666 188.264 35.7052C188.063 35.6439 187.859 35.5925 187.652 35.5511C187.446 35.5097 187.238 35.4786 187.028 35.4576C186.6 35.414 186.168 35.3846 185.738 35.4015Z" fill="#006B64"/>
<path d="M219.034 45.8891C219.38 45.0594 219.186 43.7159 219.227 42.808C219.384 39.3152 220.862 35.5309 223.282 33.0121C226.082 30.1003 230.014 28.8537 233.977 28.7706C238.227 28.6814 242.397 29.7617 245.532 32.7756C247.882 35.0358 249.686 39.0114 249.754 42.3235C250.007 42.8275 250.099 51.0557 249.866 51.7823C249.839 51.8659 249.801 51.9441 249.759 52.0208C249.796 53.9958 248.737 56.7153 247.757 58.3597C245.861 61.5428 242.612 63.6015 239.059 64.4904C236.665 65.0894 232.137 65.0556 229.709 64.5641C228.493 64.3181 227.257 63.8679 226.163 63.2872C224.846 62.5881 223.832 61.5363 222.576 60.7908C222.86 60.5867 223.077 60.1932 223.251 59.893C224.59 57.5813 224.972 54.4634 224.276 51.8923C223.562 49.253 221.346 47.2202 219.034 45.8891ZM234.224 35.8995C232.349 36.0907 230.697 36.6826 229.473 38.1753C228.746 39.0617 228.272 40.1344 227.994 41.2389C227.353 43.7851 227.394 48.6086 227.68 51.2584C227.888 53.1821 228.552 55.1088 230.111 56.3602C231.343 57.3507 232.862 57.6535 234.41 57.7272C236.378 57.6202 238.232 57.2661 239.602 55.7308C241.903 53.1542 241.607 47.013 241.398 43.7532C241.249 41.4197 240.676 39.0184 238.841 37.4114C237.554 36.2831 235.906 35.8818 234.224 35.8995Z" fill="#006B64"/>
<path d="M51.4047 64.8828C52.7091 56.8304 53.6494 48.6654 54.7263 40.5751L55.5627 34.2527C55.7532 32.8249 55.8832 31.3366 56.2776 29.9478C56.6146 28.7606 57.2055 27.5956 57.6889 26.4594C58.5315 24.4867 59.3641 22.5098 60.1866 20.5287C62.8573 14.1107 65.4175 7.61052 68.2331 1.25632C68.3826 0.918884 68.6325 0.177731 68.954 0C69.281 0.377723 69.6004 2.55716 69.7954 3.21938L75.9446 24.1962C77.004 27.8239 77.9419 31.514 79.1412 35.0972C79.8966 37.9458 80.664 40.8625 81.6059 43.6552C81.9814 45.0371 82.2753 46.8174 82.9247 48.0748C83.2347 49.4697 83.8636 50.9163 84.0251 52.3147L84.1271 52.4436C84.612 54.0262 84.9615 55.821 85.5799 57.3468C85.7454 57.9768 85.9084 58.6067 86.1023 59.2292L86.3133 59.9662L86.6098 60.9801C86.7697 61.5418 86.8937 62.2057 87.1477 62.728L87.3757 63.6976C87.5082 64.0831 87.6256 64.4839 87.7811 64.8599C86.9152 65.1632 80.0746 64.8759 78.6048 64.8734L51.4047 64.8828Z" fill="#006B64"/>
</svg>
