<svg width="16" height="12" viewBox="0 0 16 12" fill="none" xmlns="http://www.w3.org/2000/svg">
<path fill-rule="evenodd" clip-rule="evenodd" d="M0 0.9C0 0.661305 0.0790176 0.432387 0.21967 0.263604C0.360322 0.094821 0.551088 0 0.75 0H15.25C15.4489 0 15.6397 0.094821 15.7803 0.263604C15.921 0.432387 16 0.661305 16 0.9C16 1.13869 15.921 1.36761 15.7803 1.5364C15.6397 1.70518 15.4489 1.8 15.25 1.8H0.75C0.551088 1.8 0.360322 1.70518 0.21967 1.5364C0.0790176 1.36761 0 1.13869 0 0.9ZM0 6C0 5.76131 0.0790176 5.53239 0.21967 5.3636C0.360322 5.19482 0.551088 5.1 0.75 5.1H15.25C15.4489 5.1 15.6397 5.19482 15.7803 5.3636C15.921 5.53239 16 5.76131 16 6C16 6.2387 15.921 6.46761 15.7803 6.6364C15.6397 6.80518 15.4489 6.9 15.25 6.9H0.75C0.551088 6.9 0.360322 6.80518 0.21967 6.6364C0.0790176 6.46761 0 6.2387 0 6ZM0.75 10.2C0.551088 10.2 0.360322 10.2948 0.21967 10.4636C0.0790176 10.6324 0 10.8613 0 11.1C0 11.3387 0.0790176 11.5676 0.21967 11.7364C0.360322 11.9052 0.551088 12 0.75 12H15.25C15.4489 12 15.6397 11.9052 15.7803 11.7364C15.921 11.5676 16 11.3387 16 11.1C16 10.8613 15.921 10.6324 15.7803 10.4636C15.6397 10.2948 15.4489 10.2 15.25 10.2H0.75Z" fill="white"/>
</svg>
