<svg width="15" height="14" viewBox="0 0 15 14" fill="none" xmlns="http://www.w3.org/2000/svg">
<path d="M7.01453 0C5.56058 0 4.16618 0.543419 3.13809 1.51071C2.10999 2.47801 1.53242 3.78994 1.53242 5.15789V7.75747C1.53253 7.87178 1.50438 7.98454 1.45018 8.08684L0.1055 10.6164C0.0398139 10.74 0.00879746 10.8773 0.0153967 11.0154C0.0219959 11.1534 0.0659917 11.2876 0.143205 11.4051C0.220419 11.5226 0.328287 11.6196 0.456564 11.6869C0.584842 11.7542 0.729269 11.7895 0.876129 11.7895H13.1529C13.2998 11.7895 13.4442 11.7542 13.5725 11.6869C13.7008 11.6196 13.8086 11.5226 13.8858 11.4051C13.9631 11.2876 14.0071 11.1534 14.0137 11.0154C14.0203 10.8773 13.9892 10.74 13.9236 10.6164L12.5797 8.08684C12.5252 7.9846 12.4968 7.87184 12.4966 7.75747V5.15789C12.4966 3.78994 11.9191 2.47801 10.891 1.51071C9.86287 0.543419 8.46847 0 7.01453 0ZM7.01453 14C6.52846 14.0002 6.05427 13.8586 5.65733 13.5947C5.26038 13.3308 4.96021 12.9575 4.79819 12.5263H9.23086C9.06884 12.9575 8.76867 13.3308 8.37173 13.5947C7.97478 13.8586 7.5006 14.0002 7.01453 14Z" fill="#006B64"/>
</svg>
