<svg width="15" height="15" viewBox="0 0 14 14" fill="none" xmlns="http://www.w3.org/2000/svg">
<path d="M8.99535 8.99541H14V9.99634H8.99535V8.99541ZM8.99535 10.9973H11.9981V11.9982H8.99535V10.9973Z" fill="#006B64"/>
<path d="M14 7.49397V6.9935C13.9987 5.54006 13.5449 4.12308 12.7017 2.93919C11.8586 1.75531 10.6678 0.863247 9.29467 0.386793C7.92154 -0.08966 6.43414 -0.126872 5.0389 0.280322C3.64366 0.687516 2.40977 1.51892 1.50846 2.65916C0.607144 3.7994 0.0831145 5.19192 0.00908805 6.64348C-0.0649384 8.09504 0.31471 9.53364 1.09535 10.7597C1.87598 11.9857 3.0189 12.9383 4.36547 13.4853C5.71205 14.0323 7.19551 14.1466 8.60999 13.8123L8.37978 12.8384C7.9255 12.9457 7.46026 12.9996 6.99349 12.9991C6.89841 12.9991 6.80582 12.9896 6.71173 12.9856C5.62567 11.3577 5.03289 9.45071 5.00465 7.49397H14ZM12.9786 6.49304H9.98377C9.92781 4.64907 9.45307 2.842 8.59548 1.20863C9.77796 1.53714 10.8317 2.21946 11.6152 3.16403C12.3988 4.1086 12.8742 5.27023 12.9786 6.49304ZM7.27525 1.00144C8.36131 2.62936 8.95409 4.5363 8.98234 6.49304H5.00465C5.03289 4.5363 5.62567 2.62936 6.71173 1.00144C6.80582 0.997937 6.89841 0.987928 6.99349 0.987928C7.08858 0.987928 7.18117 0.997437 7.27525 1.00144ZM5.39151 1.20863C4.53392 2.842 4.05918 4.64907 4.00322 6.49304H1.00894C1.11325 5.27036 1.58901 4.10882 2.37236 3.16426C3.15572 2.2197 4.20922 1.53731 5.39151 1.20863ZM5.39151 12.7784C4.20922 12.4497 3.15572 11.7673 2.37236 10.8227C1.58901 9.87819 1.11325 8.71665 1.00894 7.49397H4.00322C4.05918 9.33794 4.53392 11.145 5.39151 12.7784Z" fill="#006B64"/>
</svg>
