<svg width="15" height="15" viewBox="0 0 15 15" fill="none" xmlns="http://www.w3.org/2000/svg">
<path d="M14.2692 2.59718L12.4975 4.39047L10.9063 3.96429L10.4797 2.37468L12.2454 0.586914C11.687 0.402802 11.0884 0.377243 10.5163 0.513086C9.94426 0.648929 9.4212 0.940835 9.00545 1.35626C8.56653 1.79446 8.26552 2.35137 8.13951 2.95837C8.01351 3.56537 8.06801 4.19594 8.2963 4.77238L2.95552 10.108C2.84209 10.0876 2.72724 10.0762 2.61202 10.0737C2.32577 10.0734 2.04227 10.1295 1.77774 10.2388C1.51321 10.3481 1.27285 10.5084 1.07041 10.7106C0.867972 10.9128 0.707429 11.1529 0.597968 11.4171C0.488507 11.6813 0.432277 11.9646 0.432496 12.2505C0.432496 12.5364 0.488849 12.8194 0.598339 13.0835C0.707829 13.3476 0.868311 13.5875 1.07062 13.7896C1.27293 13.9917 1.51311 14.1521 1.77744 14.2614C2.04177 14.3708 2.32508 14.4271 2.61119 14.4271C2.8973 14.4271 3.18061 14.3708 3.44494 14.2614C3.70928 14.1521 3.94945 13.9917 4.15176 13.7896C4.35408 13.5875 4.51456 13.3476 4.62405 13.0835C4.73354 12.8194 4.78989 12.5364 4.78989 12.2505C4.78989 12.1177 4.77327 11.9887 4.75111 11.8631L10.0642 6.55516C10.6431 6.78673 11.2773 6.84346 11.8882 6.71831C12.4991 6.59316 13.0598 6.29164 13.5008 5.85113C13.9191 5.43392 14.2125 4.90832 14.348 4.33353C14.4835 3.75873 14.4556 3.15757 14.2676 2.59773L14.2692 2.59718ZM2.61258 12.7647C2.54462 12.7649 2.47731 12.7516 2.41447 12.7258C2.35163 12.7 2.29451 12.662 2.24636 12.6141C2.1982 12.5662 2.15996 12.5093 2.13382 12.4466C2.10769 12.384 2.09416 12.3168 2.09401 12.2489C2.09412 12.1469 2.12446 12.0473 2.18119 11.9626C2.23792 11.8779 2.3185 11.8119 2.41276 11.7728C2.50703 11.7338 2.61075 11.7236 2.71083 11.7434C2.81091 11.7633 2.90286 11.8123 2.97509 11.8843C3.04731 11.9563 3.09656 12.048 3.11663 12.148C3.13669 12.2479 3.12667 12.3516 3.08783 12.4458C3.04899 12.5401 2.98306 12.6207 2.89838 12.6776C2.8137 12.7344 2.71405 12.765 2.61202 12.7653L2.61258 12.7647Z" fill="#006B64"/>
</svg>
