<svg width="20" height="20" viewBox="0 0 20 20" fill="none" xmlns="http://www.w3.org/2000/svg">
<path d="M15.3555 10C15.3565 11.0711 15.039 12.1183 14.4432 13.0085C13.8475 13.8987 13.0006 14.5916 12.01 14.9991C11.0194 15.4078 9.92996 15.5141 8.87903 15.3046C7.82809 15.0951 6.86271 14.5792 6.10455 13.8218C5.34706 13.0644 4.83161 12.0991 4.62358 11.0482C4.41555 9.99744 4.52432 8.90852 4.93609 7.91962C5.34785 6.93072 6.04406 6.0864 6.9364 5.49377C7.82873 4.90114 8.87699 4.5869 9.94818 4.59092C11.3835 4.59133 12.7599 5.16121 13.7755 6.17546C14.2772 6.67784 14.6749 7.27423 14.9458 7.93049C15.2168 8.58675 15.3557 9.29001 15.3545 10M2.00273 10.9527H0.954546C0.701699 10.9527 0.459182 10.8524 0.280222 10.6738C0.101263 10.4952 0.00048205 10.2529 4.37923e-07 10C-0.000119753 9.87471 0.0245015 9.75061 0.0724517 9.63485C0.120402 9.51909 0.190737 9.41393 0.279423 9.32542C0.368108 9.2369 0.473399 9.16676 0.589253 9.11903C0.705107 9.0713 0.829245 9.04692 0.954546 9.04728H2.00273C2.25557 9.04728 2.49809 9.1476 2.67705 9.32622C2.85601 9.50483 2.95679 9.74716 2.95727 10C2.95739 10.1253 2.93277 10.2494 2.88482 10.3652C2.83687 10.4809 2.76654 10.5861 2.67785 10.6746C2.58916 10.7631 2.48387 10.8332 2.36802 10.881C2.25217 10.9287 2.12803 10.9531 2.00273 10.9527ZM19.0455 10.9527H18.0064C17.7537 10.9525 17.5114 10.8521 17.3326 10.6735C17.1539 10.4949 17.0532 10.2527 17.0527 10C17.0526 9.87471 17.0772 9.75061 17.1252 9.63485C17.1731 9.51909 17.2435 9.41393 17.3321 9.32542C17.4208 9.2369 17.5261 9.16676 17.642 9.11903C17.7578 9.0713 17.882 9.04692 18.0073 9.04728H19.0464C19.2991 9.04752 19.5413 9.14794 19.7201 9.32654C19.8989 9.50513 19.9995 9.74732 20 10C20.0001 10.1253 19.9755 10.2494 19.9275 10.3652C19.8796 10.4809 19.8093 10.5861 19.7206 10.6746C19.6319 10.7631 19.5266 10.8332 19.4107 10.881C19.2949 10.9287 19.1708 10.9531 19.0455 10.9527ZM9.98636 2.95273C9.73352 2.95273 9.491 2.85242 9.31204 2.6738C9.13308 2.49518 9.0323 2.25285 9.03182 2.00001V0.952734C9.0317 0.827357 9.05635 0.703191 9.10436 0.587368C9.15236 0.471545 9.22278 0.366348 9.31156 0.27782C9.40034 0.189291 9.50574 0.119175 9.6217 0.0714997C9.73766 0.023824 9.8619 -0.000472107 9.98727 6.94858e-06C10.24 0.000247147 10.4822 0.100672 10.661 0.279265C10.8398 0.457857 10.9404 0.700046 10.9409 0.952734V2.00001C10.941 2.12531 10.9164 2.2494 10.8685 2.36516C10.8205 2.48093 10.7502 2.58608 10.6615 2.6746C10.5728 2.76311 10.4675 2.83325 10.3517 2.88098C10.2358 2.92871 10.1117 2.95309 9.98636 2.95273ZM9.98636 20C9.73367 20 9.49129 19.8998 9.31236 19.7214C9.13343 19.543 9.03254 19.3009 9.03182 19.0482V18C9.0317 17.8747 9.05632 17.7506 9.10427 17.6349C9.15222 17.5191 9.22256 17.4139 9.31124 17.3254C9.39993 17.2369 9.50522 17.1668 9.62107 17.119C9.73692 17.0713 9.86106 17.0469 9.98636 17.0473C10.2391 17.0475 10.4813 17.1479 10.6601 17.3265C10.8389 17.5051 10.9395 17.7473 10.94 18V19.0473C10.9401 19.1726 10.9155 19.2967 10.8675 19.4124C10.8196 19.5282 10.7493 19.6334 10.6606 19.7219C10.5719 19.8104 10.4666 19.8805 10.3507 19.9283C10.2349 19.976 10.1117 20.0004 9.98636 20ZM4.32091 5.29546C4.19476 5.295 4.06995 5.26953 3.9537 5.22053C3.83745 5.17154 3.73206 5.09998 3.64364 5.01001L2.89909 4.27637C2.76479 4.14274 2.67326 3.97219 2.63611 3.78641C2.59897 3.60063 2.6179 3.408 2.69049 3.23301C2.76308 3.05801 2.88606 2.90854 3.04379 2.8036C3.20153 2.69866 3.38691 2.64298 3.57636 2.64364C3.83091 2.64364 4.07455 2.74455 4.25364 2.92364L4.99818 3.66637C5.17594 3.84477 5.27575 4.08635 5.27575 4.33819C5.27575 4.59003 5.17594 4.83161 4.99818 5.01001C4.90976 5.09998 4.80437 5.17154 4.68812 5.22053C4.57187 5.26953 4.44706 5.295 4.32091 5.29546ZM16.3855 17.3146C16.1351 17.3136 15.8951 17.2144 15.7173 17.0382L14.9736 16.2955C14.7952 16.1456 14.678 15.9356 14.6441 15.7051C14.6102 15.4746 14.662 15.2396 14.7898 15.0448C14.9175 14.8499 15.1123 14.7087 15.3371 14.6478C15.562 14.587 15.8014 14.6107 16.01 14.7146C16.1288 14.7727 16.2318 14.8521 16.3191 14.9527L17.0627 15.6955C17.2402 15.8738 17.3398 16.1152 17.3398 16.3668C17.3398 16.6184 17.2402 16.8598 17.0627 17.0382C16.9735 17.1265 16.8678 17.1964 16.7516 17.2438C16.6354 17.2912 16.511 17.3153 16.3855 17.3146ZM15.6509 5.29546C15.5095 5.296 15.3698 5.26513 15.2418 5.20507C15.1138 5.14501 15.0007 5.05727 14.9108 4.94819C14.8208 4.8391 14.7563 4.7114 14.7217 4.57431C14.6871 4.43721 14.6834 4.29415 14.7109 4.15546C14.7473 3.97001 14.84 3.80001 14.9745 3.66637L15.7182 2.92364C15.8996 2.75549 16.1392 2.66432 16.3865 2.66933C16.6338 2.67435 16.8695 2.77517 17.0439 2.95054C17.2183 3.12591 17.3179 3.36215 17.3215 3.60947C17.3252 3.85679 17.2328 4.09588 17.0636 4.27637L16.3182 5.01001C16.142 5.1893 15.9022 5.29188 15.6509 5.29546ZM3.57636 17.3146C3.45085 17.3153 3.32642 17.2912 3.2102 17.2438C3.09399 17.1964 2.98827 17.1265 2.89909 17.0382C2.72139 16.8599 2.62161 16.6185 2.62161 16.3668C2.62161 16.1151 2.72139 15.8737 2.89909 15.6955L3.64364 14.9527C3.73236 14.8634 3.83787 14.7925 3.95411 14.7441C4.07035 14.6957 4.19501 14.6708 4.32091 14.6708C4.44681 14.6708 4.57147 14.6957 4.68771 14.7441C4.80394 14.7925 4.90946 14.8634 4.99818 14.9527C5.17566 15.1311 5.27529 15.3725 5.27529 15.6241C5.27529 15.8757 5.17566 16.1171 4.99818 16.2955L4.25364 17.0382C4.16446 17.1265 4.05874 17.1964 3.94252 17.2438C3.82631 17.2912 3.70188 17.3153 3.57636 17.3146Z" fill="#EAB308"/>
</svg>
