<svg width="250" height="66" viewBox="0 0 250 66" fill="none" xmlns="http://www.w3.org/2000/svg">
<path d="M151.124 16.1066C152.745 15.9971 156.76 15.7589 158.193 16.2457C158.597 16.6898 158.713 17.4874 158.758 18.0706C158.856 19.3568 159.164 22.9705 158.316 23.9274C158.051 24.2267 157.696 24.2165 157.32 24.2437C155.603 24.2551 151.992 24.5696 150.535 23.9974C150.34 23.7866 150.26 23.5404 150.186 23.2692C149.861 22.0868 149.688 17.5674 150.302 16.5274C150.473 16.2363 150.818 16.1804 151.124 16.1066Z" fill="white"/>
<path d="M151.17 29.1786C152.469 29.0287 157.345 28.9216 158.265 29.3839C158.437 29.9565 158.504 30.5604 158.535 31.1557C158.644 33.1949 158.558 35.2808 158.558 37.3239L158.554 49.1126L158.543 59.8024C158.542 61.2381 158.662 62.7365 158.58 64.1618C158.562 64.468 158.466 64.8047 158.25 65.0317C157.904 65.3928 157.366 65.3305 156.904 65.3355C154.936 65.4386 152.929 65.342 150.954 65.3858C150.964 65.3734 150.975 65.3619 150.985 65.3495C151.002 65.3286 151.018 65.3071 151.034 65.2862C151.317 64.9207 151.396 64.5452 151.442 64.095C151.734 61.2705 151.505 57.8189 151.502 54.9301C151.497 50.2849 151.676 45.5675 151.358 40.9357C151.23 39.0767 150.606 37.4684 150.269 35.6671C150.024 34.3566 150.061 32.9599 150.099 31.6311C150.115 31.0711 150.079 30.3271 150.295 29.8123C150.449 29.4455 150.828 29.3214 151.17 29.1786Z" fill="white"/>
<path d="M30.5855 29.4358C31.16 29.6334 32.7561 33.0142 33.2294 33.807C32.522 35.4569 31.4151 36.9848 30.4439 38.4895L26.2954 44.9105C21.9061 51.709 17.6186 58.5847 13.1539 65.3324C10.1263 65.6048 6.92618 65.4056 3.88045 65.4071L0.985474 65.4774C2.27209 64.1019 3.43099 62.5791 4.62484 61.122L10.819 53.5556L30.5855 29.4358Z" fill="white"/>
<path d="M50.9557 29.397C52.0407 29.8616 55.0761 30.8376 55.5442 31.8724C54.3785 38.7376 53.6052 45.681 52.6766 52.5831L51.5945 60.5932C51.3829 62.1942 51.1041 63.8162 51.0508 65.4307C48.4006 65.2987 45.7213 65.3674 43.0675 65.3669C39.7325 65.3659 36.388 65.3226 33.0543 65.4088C33.9694 64.2738 34.5277 62.6061 35.148 61.274L38.3815 54.3037C38.0275 54.0118 37.6625 53.8809 37.2215 53.7713C37.5357 52.8814 37.9928 52.0199 38.3926 51.1644L38.7231 51.1006L38.7634 51.0239C39.1451 51.0518 39.52 51.0847 39.9027 51.0518C41.8768 47.1376 43.6284 43.085 45.4845 39.1111C47.1032 35.6461 48.5101 32.3854 50.9557 29.397ZM38.3926 51.1644C37.9928 52.0199 37.5357 52.8814 37.2215 53.7713C37.6625 53.8809 38.0275 54.0118 38.3815 54.3037C38.9025 53.2264 39.4096 52.1424 39.9027 51.0518C39.52 51.0847 39.1451 51.0518 38.7634 51.0239L38.7231 51.1006L38.3926 51.1644Z" fill="white"/>
<path d="M199.758 35.8453C200.649 33.4958 202.696 31.6736 204.95 30.6644C207.412 29.5619 210.038 29.4245 212.691 29.4305C213.281 29.4319 214.025 29.3582 214.582 29.5497C214.716 29.5958 214.887 29.6748 214.944 29.8091C215.224 30.4699 215.244 34.9262 214.989 35.55C214.949 35.6476 214.897 35.7345 214.837 35.8206C212.924 35.8552 208.868 35.3714 207.463 36.8165C207.021 37.2719 206.618 38.0463 206.643 38.6967C206.671 39.4282 207.142 40.0124 207.666 40.477C208.507 41.2225 209.593 41.7508 210.555 42.326L215.788 45.4708C219.453 47.6485 223.458 49.7829 223.771 54.566C223.929 56.9827 222.952 59.8237 221.342 61.6344C219.485 63.7235 216.487 65.1532 213.704 65.3011C211.151 65.4371 208.564 65.3524 206.008 65.3444C203.634 65.3365 201.231 65.4117 198.862 65.2643C199.083 64.839 199.126 60.0224 198.965 59.4667C198.939 59.3751 198.9 59.2899 198.859 59.2043C198.85 59.1848 198.841 59.1649 198.832 59.1455C202.046 58.892 205.334 59.0384 208.559 59.0384C210.131 59.0379 211.787 59.1196 213.338 58.8427C214.099 58.7068 214.941 58.4687 215.466 57.8657C215.927 57.3348 215.981 56.4872 215.921 55.811C215.825 54.7368 215.187 53.9221 214.382 53.2578C212.29 51.5333 208.271 49.4377 205.778 47.9448C204.716 47.3084 203.419 46.6704 202.571 45.7591C202.259 45.423 202.178 45.0679 202.135 44.6247C202.068 43.9395 202.18 43.2005 201.838 42.58C201.927 42.2897 201.92 42.0267 201.894 41.7279C201.758 40.1603 200.992 36.8769 199.758 35.8453Z" fill="white"/>
<path d="M14.4968 65.3669C15.775 64.1025 17.699 60.6191 18.7735 58.9369L29.4146 42.4048C30.8114 40.2365 32.803 36.6454 34.4044 34.8441C35.3574 33.7723 36.6498 32.9024 37.7851 32.0299C39.6698 30.6027 41.5406 29.1576 43.3975 27.6945C44.4667 29.0572 46.1553 31.8124 46.7084 33.3948C45.5499 36.1811 44.1521 38.9074 42.8666 41.6399C41.3748 44.8115 39.9575 48.0295 38.3926 51.1644C37.9928 52.0199 37.5357 52.8814 37.2215 53.7713C36.5751 54.7797 36.1063 56.0715 35.5958 57.1641C34.3141 59.907 33.0779 62.6743 31.7745 65.4063C26.0154 65.3621 20.2561 65.349 14.4968 65.3669Z" fill="white"/>
<path d="M167.856 35.4474C168.012 35.721 168.071 35.9575 168.089 36.2704C168.188 37.9025 168.108 39.5907 168.108 41.228L168.105 50.7192L168.1 59.413C168.098 61.0474 168.33 63.0692 167.926 64.6458C167.867 64.8734 167.842 65.0487 167.623 65.1662C167.144 65.4237 161.354 65.5004 160.737 65.3022C160.303 65.1628 159.984 64.9148 159.78 64.5009C159.613 64.1618 159.544 63.7604 159.527 63.3844C159.458 61.8023 159.578 60.1665 159.578 58.5764L159.573 46.4111C159.515 40.5661 159.543 34.7216 159.657 28.8778C159.693 27.429 159.654 25.9732 159.743 24.5267C159.771 24.0276 159.834 23.5329 159.931 23.0426C160.028 22.5522 160.158 22.0708 160.322 21.5985C161.015 19.615 162.301 18.0578 164.209 17.1454C166.825 15.895 169.859 15.9281 172.692 15.9294C173.386 15.9297 174.397 15.8286 175.056 16.0839C175.277 16.1694 175.432 16.3902 175.525 16.5984C175.762 17.1283 175.709 17.9989 175.513 18.5352C175.801 19.018 175.721 19.9878 175.6 20.5265C175.58 20.6131 175.548 20.6946 175.51 20.7744C175.622 21.1492 175.665 21.3961 175.556 21.777C174.793 22.8183 171.365 22.3 170.061 22.5419C169.599 22.6275 169.173 22.8463 168.756 23.0554C168.686 23.6448 168.212 24.2463 168.124 24.8898C167.952 26.1419 168.492 28.0274 167.839 29.128C169.31 29.021 173.837 28.7961 175.052 29.3764C175.358 29.5224 175.658 29.7681 175.762 30.103C175.897 30.5393 175.77 31.3864 175.557 31.7834C175.554 31.8121 175.552 31.841 175.547 31.8696C175.518 32.055 172.814 35.1584 172.517 35.372C171.007 35.5559 169.381 35.4638 167.856 35.4474Z" fill="white"/>
<path d="M132.969 29.552C133.967 29.5183 134.966 29.5077 135.965 29.5202C139.932 29.6076 144.207 30.0702 147.089 33.1129C148.705 34.818 149.651 37.1679 150.077 39.4521C150.453 41.4664 150.33 43.5341 150.313 45.5723L150.301 51.85L150.306 60.9148C150.309 61.9655 150.413 63.0377 150.378 64.084C150.366 64.4525 150.277 64.8832 149.988 65.1382C149.787 65.316 149.499 65.3937 149.237 65.4166C148.568 65.4748 147.852 65.3424 147.177 65.3339C146.017 65.32 144.842 65.4256 143.684 65.3379C143.477 65.322 143.001 65.2951 142.89 65.0889C142.131 63.6716 143.331 45.3527 142.438 41.5118C142.232 40.6263 141.793 39.8355 141.199 39.1503C140.027 37.7983 138.655 37.3642 136.922 37.2385C135.592 37.0737 134.061 37.0998 132.726 37.2483C130.543 37.4912 128.912 38.6424 128.028 40.6731C127.724 41.3728 127.552 42.1213 127.474 42.8787C127.233 45.1904 127.382 47.6365 127.38 49.9621C127.377 53.701 127.323 57.4488 127.386 61.1867C127.403 62.22 127.698 64.5501 127.065 65.3419C125.837 65.3548 120.663 65.6262 119.968 65.1088C119.931 64.9809 119.896 64.8469 119.882 64.7144C119.723 63.1926 119.606 60.9825 119.952 59.506C120.399 57.5972 121.132 56.1894 121.254 54.1322C121.497 50.0258 121.392 45.8965 121.375 41.7837C121.367 39.9819 121.221 38.0418 121.428 36.2577C121.565 35.0836 121.943 34.3251 122.708 33.4227C125.302 30.3633 129.218 29.8518 132.969 29.552Z" fill="white"/>
<path d="M89.9282 32.889C89.9307 31.943 89.7051 30.4668 90.3723 29.7484C90.9818 29.4013 96.1071 29.3407 96.9217 29.5798C97.0397 29.6144 97.206 29.6609 97.2643 29.7739C97.8175 30.8528 97.5894 32.9587 97.5894 34.1761C97.5879 37.3249 97.2359 51.6324 97.9091 53.6951C98.4265 55.2797 99.8142 56.8249 101.401 57.3807C103.239 58.0251 107.767 58.0136 109.527 57.1605C110.836 56.5261 111.967 55.2567 112.433 53.8813C113.279 51.3889 112.875 38.3541 112.871 34.9071C112.869 33.4931 112.704 31.8492 112.955 30.4695C113.002 30.2095 113.082 29.8826 113.33 29.7524C114 29.4008 119.034 29.3454 119.848 29.6286C120.001 29.6817 120.118 29.7821 120.226 29.8998C120.643 30.9507 120.572 52.2803 120.335 54.6995C120.203 56.0371 119.81 57.3329 119.283 58.5654C118.144 61.2236 116.195 63.238 113.491 64.3146C109.221 66.0147 104.588 65.1134 100.13 65.2384L99.504 65.206C99.2057 64.9326 98.2153 64.7409 97.804 64.6054C95.2646 63.7723 93.5392 62.5139 92.0708 60.2645C91.7312 59.7441 91.4837 59.1659 91.1237 58.661L91.0829 58.6047L91.0072 58.2865C90.9146 57.9543 90.7961 57.6371 90.6706 57.3159C90.4739 56.6919 90.341 56.0894 90.2434 55.4425L90.1174 55.1228C89.6274 47.7496 90.0482 40.2808 89.9282 32.889Z" fill="white"/>
<path d="M185.044 29.5311C189.329 29.4518 193.531 30.2593 196.739 33.3613C199.293 35.8319 201.005 39.9193 201.025 43.4998C201.026 43.685 201.002 43.8942 200.941 44.0695C201.015 44.2368 201.081 44.436 201.102 44.6193C201.204 45.5405 201.219 49.2326 200.701 49.8845C198.888 50.1658 195.537 49.9343 193.532 49.9318L178.727 49.9681C178.946 50.5229 178.956 51.1389 179.013 51.7275C179.195 53.6303 179.621 55.3399 180.943 56.7975C184.022 60.1923 190.977 58.9384 195.178 59.1495C195.189 59.1689 195.2 59.1884 195.211 59.2073C195.26 59.2914 195.311 59.3746 195.343 59.4672C195.612 60.2247 195.565 64.7115 195.204 65.4256C189.126 65.3181 182.559 66.4032 177.302 62.8232C174.158 60.6823 172.4 57.6491 171.702 53.9615C171.321 51.9511 171.326 49.9159 171.325 47.8781C171.322 43.448 171.423 39.0114 174.035 35.204C177.019 30.8552 180.335 30.3975 185.044 29.5311ZM185.98 35.9015C183.878 36.1038 182.167 36.7051 180.786 38.381C178.773 40.8231 179.293 43.9759 178.691 44.7712C181.097 44.799 183.503 44.8118 185.909 44.8095C186.865 44.8135 192.858 44.9758 193.301 44.8025C193.548 42.45 193.105 40.1573 191.583 38.2809C191.451 38.1182 191.31 37.9625 191.162 37.8138C191.015 37.6647 190.86 37.5234 190.698 37.3898C190.536 37.2561 190.368 37.1308 190.194 37.0137C190.02 36.8966 189.841 36.7883 189.656 36.6889C189.471 36.5895 189.282 36.4993 189.088 36.4185C188.894 36.3377 188.697 36.2666 188.497 36.2052C188.296 36.1439 188.093 36.0925 187.887 36.0511C187.682 36.0097 187.474 35.9786 187.265 35.9576C186.839 35.914 186.409 35.8846 185.98 35.9015Z" fill="white"/>
<path d="M219.144 46.3891C219.488 45.5594 219.295 44.2159 219.336 43.308C219.492 39.8152 220.964 36.0309 223.375 33.5121C226.163 30.6003 230.079 29.3537 234.027 29.2706C238.26 29.1814 242.413 30.2617 245.535 33.2756C247.876 35.5358 249.672 39.5114 249.741 42.8235C249.992 43.3275 250.084 51.5557 249.852 52.2823C249.825 52.3659 249.787 52.4441 249.745 52.5208C249.782 54.4958 248.727 57.2153 247.751 58.8597C245.863 62.0428 242.627 64.1015 239.088 64.9904C236.704 65.5894 232.194 65.5556 229.775 65.0641C228.565 64.8181 227.333 64.3679 226.244 63.7872C224.932 63.0881 223.922 62.0363 222.671 61.2908C222.955 61.0867 223.17 60.6932 223.343 60.393C224.677 58.0813 225.058 54.9634 224.365 52.3923C223.653 49.753 221.446 47.7202 219.144 46.3891ZM234.273 36.3995C232.405 36.5907 230.76 37.1826 229.54 38.6753C228.816 39.5617 228.344 40.6344 228.067 41.7389C227.429 44.2851 227.47 49.1086 227.755 51.7584C227.962 53.6821 228.624 55.6088 230.176 56.8602C231.404 57.8507 232.916 58.1535 234.457 58.2272C236.418 58.1202 238.264 57.7661 239.629 56.2308C241.92 53.6542 241.626 47.513 241.418 44.2532C241.27 41.9197 240.699 39.5184 238.872 37.9114C237.589 36.7831 235.948 36.3818 234.273 36.3995Z" fill="white"/>
<path d="M52.1846 65.3828C53.4837 57.3304 54.4203 49.1654 55.4929 41.0751L56.3259 34.7527C56.5156 33.3249 56.6451 31.8366 57.038 30.4478C57.3736 29.2606 57.9621 28.0956 58.4436 26.9594C59.2828 24.9867 60.1121 23.0098 60.9313 21.0287C63.5913 14.6107 66.1412 8.11053 68.9456 1.75632C69.0945 1.41888 69.3435 0.677731 69.6636 0.5C69.9893 0.877723 70.3075 3.05716 70.5017 3.71938L76.6263 24.6962C77.6814 28.3239 78.6156 32.014 79.8101 35.5972C80.5625 38.4458 81.3268 41.3625 82.2649 44.1552C82.6389 45.5371 82.9317 47.3174 83.5785 48.5748C83.8872 49.9697 84.5136 51.4163 84.6745 52.8147L84.776 52.9436C85.259 54.5262 85.6071 56.321 86.223 57.8468C86.3879 58.4768 86.5502 59.1067 86.7434 59.7292L86.9535 60.4662L87.2488 61.4801C87.4081 62.0418 87.5316 62.7057 87.7846 63.228L88.0116 64.1976C88.1436 64.5831 88.2606 64.9839 88.4155 65.3599C87.553 65.6632 80.7398 65.3759 79.2758 65.3734L52.1846 65.3828Z" fill="white"/>
</svg>
